<?xml version="1.0" encoding="UTF-8" standalone="no"?>
<svg
   version="1.1"
   id="svg1"
   width="175.00317mm"
   height="40.582695mm"
   viewBox="0 0 661.42927 153.38342"
   xmlns="http://www.w3.org/2000/svg">
  <defs id="defs1">
    <linearGradient
       x1="0" y1="0" x2="1" y2="0"
       gradientUnits="userSpaceOnUse"
       gradientTransform="matrix(94.07,0,0,-94.07,49.601753,240.9843)"
       spreadMethod="pad"
       id="linearGradient3">
      <stop style="stop-opacity:1;stop-color:#1abc9c" offset="0" />
      <stop style="stop-opacity:1;stop-color:#1abc9c" offset="0.33185004" />
      <stop style="stop-opacity:1;stop-color:#0a2e5d" offset="1" />
    </linearGradient>
    <linearGradient
       x1="0" y1="0" x2="1" y2="0"
       gradientUnits="userSpaceOnUse"
       gradientTransform="matrix(86.545242,0,0,-86.545242,104.0606,240.9843)"
       spreadMethod="pad"
       id="linearGradient6">
      <stop style="stop-opacity:1;stop-color:#1abc9c" offset="0" />
      <stop style="stop-opacity:1;stop-color:#0a2e5d" offset="0.90834772" />
      <stop style="stop-opacity:1;stop-color:#0a2e5d" offset="1" />
    </linearGradient>
    <linearGradient
       x1="0" y1="0" x2="1" y2="0"
       gradientUnits="userSpaceOnUse"
       gradientTransform="matrix(86.952034,0,0,-86.952034,254.61919,240.9843)"
       spreadMethod="pad"
       id="linearGradient10">
      <stop style="stop-opacity:1;stop-color:#0a2e5d" offset="0" />
      <stop style="stop-opacity:1;stop-color:#0a2e5d" offset="1" />
    </linearGradient>
    <linearGradient
       x1="0" y1="0" x2="1" y2="0"
       gradientUnits="userSpaceOnUse"
       gradientTransform="matrix(82.57859,0,0,-82.57859,357.83994,240.9843)"
       spreadMethod="pad"
       id="linearGradient14">
      <stop style="stop-opacity:1;stop-color:#0a2e5d" offset="0" />
      <stop style="stop-opacity:1;stop-color:#0a2e5d" offset="1" />
    </linearGradient>
    <linearGradient
       x1="0" y1="0" x2="1" y2="0"
       gradientUnits="userSpaceOnUse"
       gradientTransform="matrix(94.071167,0,0,-94.071167,451.60266,240.9843)"
       spreadMethod="pad"
       id="linearGradient19">
      <stop style="stop-opacity:1;stop-color:#0a2e5d" offset="0" />
      <stop style="stop-opacity:1;stop-color:#0a2e5d" offset="1" />
    </linearGradient>
  </defs>
  <g id="layer-MC0" transform="translate(988.39109,-202.08989)">
    <g id="g80">
      <g id="g79" transform="translate(-1054.5272,-21.112761)">
        <g id="g78">
          <g id="g77">
            <path
               id="path3"
               d="m 81.23,260.805 11.695,21.634 h 7.119 L 143.672,199.53 H 113.773 Z M 86.619,238.912 73.907,215.723 H 95.365 V 199.53 H 49.602 v 6.477 l 28.068,49.745 z"
               transform="matrix(1.3333333,0,0,-1.3333333,0,599.788)"
               style="fill:url(#linearGradient3);stroke:none" />
            <path
               id="path6"
               d="m 179.263,282.439 c -19.118,0 -27.458,-9.845 -27.458,-32.387 v 0 -5.31 h 25.425 v 7.253 c 0,9.069 3.558,13.603 10.678,13.603 v 0 h 14.339 c 7.119,0 11.696,-0.648 11.696,-9.715 v 0 -3.499 h 24.408 v 1.555 c 0,20.079 -8.136,28.5 -27.459,28.5 v 0 z m 18.205,-54.279 h 15.458 v -2.074 c 0,-6.865 -1.831,-9.715 -8.645,-9.715 v 0 h -16.373 c -7.12,0 -10.678,4.534 -10.678,13.602 v 0 8.031 h -25.425 v -6.087 c 0,-23.448 9.051,-32.387 27.458,-32.387 v 0 h 21.255 c 9.865,0 15.865,5.311 17.493,15.286 v 0 h 1.016 l 13.221,-15.286 h 6.103 v 44.693 l -40.883,0.13 z"
               transform="matrix(1.3333333,0,0,-1.3333333,0,599.788)"
               style="fill:url(#linearGradient6);stroke:none" />
            <path
               id="path10"
               d="m 300.892,282.439 v -16.841 h 4.576 c 7.118,0 10.679,-4.534 10.679,-13.603 v 0 -22.022 c 0,-9.068 -3.561,-13.602 -10.679,-13.602 v 0 h -4.576 V 199.53 h 13.22 c 18.408,0 27.46,8.939 27.46,32.387 v 0 18.135 c 0,23.448 -9.052,32.387 -27.46,32.387 v 0 z m -18.814,0 c -18.408,0 -27.459,-8.939 -27.459,-32.387 v 0 -18.135 c 0,-23.448 9.051,-32.387 27.459,-32.387 v 0 h 13.22 v 16.841 h -4.576 c -7.119,0 -10.679,4.534 -10.679,13.602 v 0 22.022 c 0,9.069 3.56,13.603 10.679,13.603 v 0 h 4.576 v 16.841 z"
               style="fill:url(#linearGradient10);stroke:none"
               transform="matrix(1.3333333,0,0,-1.3333333,0,599.788)" />
            <path
               id="path14"
               d="m 414.994,282.439 v -53.762 c 0,-9.068 -2.543,-12.306 -9.661,-12.306 v 0 h -3.661 V 199.53 h 12.306 c 18.406,0 26.441,7.643 26.441,31.09 v 0 51.819 z m -57.154,0 V 230.62 c 0,-23.447 8.034,-31.09 26.441,-31.09 v 0 h 12.306 v 16.841 h -3.661 c -7.119,0 -9.662,3.238 -9.662,12.306 v 0 53.762 z"
               transform="matrix(1.3333333,0,0,-1.3333333,0,599.788)"
               style="fill:url(#linearGradient14);stroke:none" />
            <path
               id="path19"
               d="m 494.926,282.439 -11.695,-21.634 32.543,-61.275 h 29.9 l -43.63,82.909 z m -43.323,-76.433 v -6.476 h 45.764 v 16.193 h -21.459 l 12.713,23.188 -8.949,16.841 z"
               transform="matrix(1.3333333,0,0,-1.3333333,0,599.788)"
               style="fill:url(#linearGradient19);stroke:none" />
            <path
               id="path20"
               d="M 0,0 H -0.046 L -3.419,-7.985 H 3.212 Z M -0.872,2.478 H 0.941 L 7.848,-13.768 H 5.599 l -1.652,3.993 h -8.123 l -1.675,-3.993 h -2.18 z"
               style="fill:#0a2e5d;fill-opacity:1;fill-rule:nonzero;stroke:none"
               transform="matrix(1.3333333,0,0,-1.3333333,485.6912,357.67747)" />
            <path
               id="path22"
               d="m 0,0 h 1.927 v -14.456 h 7.435 v -1.79 H 0 Z"
               style="fill:#0a2e5d;fill-opacity:1;fill-rule:nonzero;stroke:none"
               transform="matrix(1.3333333,0,0,-1.3333333,502.09,354.3732)" />
            <path
               id="path24"
               d="m 389.326,174.148 h 5.621 v -1.652 h -5.621 z"
               style="fill:#0a2e5d;fill-opacity:1;fill-rule:nonzero;stroke:none"
               transform="matrix(1.3333333,0,0,-1.3333333,0,599.788)" />
            <path
               id="path26"
               d="m 0,0 c -0.643,1.033 -1.79,1.492 -2.96,1.492 -1.698,0 -3.466,-0.803 -3.466,-2.731 0,-1.491 0.827,-2.157 3.42,-2.983 2.524,-0.803 4.864,-1.629 4.864,-4.819 0,-3.235 -2.776,-4.75 -5.713,-4.75 -1.882,0 -3.901,0.62 -5.003,2.249 l 1.653,1.354 c 0.688,-1.193 2.065,-1.813 3.465,-1.813 1.652,0 3.533,0.964 3.533,2.823 0,1.996 -1.353,2.34 -4.245,3.304 -2.294,0.757 -4.039,1.767 -4.039,4.475 0,3.12 2.685,4.68 5.531,4.68 1.813,0 3.35,-0.504 4.543,-1.904 z"
               style="fill:#0a2e5d;fill-opacity:1;fill-rule:nonzero;stroke:none"
               transform="matrix(1.3333333,0,0,-1.3333333,543.97413,358.19813)" />
            <path
               id="path28"
               d="M 0,0 H -0.046 L -3.419,-7.985 H 3.213 Z M -0.872,2.478 H 0.941 L 7.847,-13.768 H 5.599 l -1.652,3.993 h -8.123 l -1.675,-3.993 h -2.18 z"
               style="fill:#0a2e5d;fill-opacity:1;fill-rule:nonzero;stroke:none"
               transform="matrix(1.3333333,0,0,-1.3333333,561.96347,357.67747)" />
            <path
               id="path30"
               d="M 0,0 H 2.868 L 8.375,-12.735 H 8.42 L 13.974,0 h 2.799 v -16.246 h -1.927 v 13.63 H 14.8 L 8.972,-16.246 H 7.801 L 1.973,-2.616 H 1.927 v -13.63 H 0 Z"
               style="fill:#0a2e5d;fill-opacity:1;fill-rule:nonzero;stroke:none"
               transform="matrix(1.3333333,0,0,-1.3333333,578.36227,354.3732)" />
            <path
               id="path32"
               d="M 0,0 H -0.046 L -3.418,-7.985 H 3.213 Z M -0.871,2.478 H 0.941 L 7.848,-13.768 H 5.599 l -1.652,3.993 h -8.123 l -1.675,-3.993 H -8.03 Z"
               style="fill:#0a2e5d;fill-opacity:1;fill-rule:nonzero;stroke:none"
               transform="matrix(1.3333333,0,0,-1.3333333,617.36907,357.67747)" />
            <path
               id="path34"
               d="M 0,0 H -0.046 L -3.419,-7.985 H 3.212 Z M -0.872,2.478 H 0.941 L 7.848,-13.768 H 5.599 l -1.653,3.993 h -8.123 l -1.674,-3.993 h -2.181 z"
               style="fill:#0a2e5d;fill-opacity:1;fill-rule:nonzero;stroke:none"
               transform="matrix(1.3333333,0,0,-1.3333333,641.9676,357.67747)" />
            <path
               id="path36"
               d="m 0,0 c -0.963,1.308 -2.502,1.974 -4.061,1.974 -3.625,0 -6.196,-3.19 -6.196,-6.747 0,-3.763 2.547,-6.746 6.196,-6.746 1.973,0 3.556,0.803 4.704,2.272 l 1.445,-1.216 c -1.445,-1.951 -3.556,-2.846 -6.149,-2.846 -4.659,0 -8.261,3.603 -8.261,8.536 0,4.773 3.442,8.536 8.261,8.536 2.202,0 4.36,-0.757 5.736,-2.547 z"
               style="fill:#0a2e5d;fill-opacity:1;fill-rule:nonzero;stroke:none"
               transform="matrix(1.3333333,0,0,-1.3333333,685.10587,358.8404)" />
            <path
               id="path38"
               d="m 0,0 c 0,3.74 -2.616,6.746 -6.426,6.746 -3.809,0 -6.424,-3.006 -6.424,-6.746 0,-3.74 2.615,-6.746 6.424,-6.746 C -2.616,-6.746 0,-3.74 0,0 m -14.915,0 c 0,4.91 3.556,8.536 8.489,8.536 4.933,0 8.491,-3.626 8.491,-8.536 0,-4.911 -3.558,-8.536 -8.491,-8.536 -4.933,0 -8.489,3.625 -8.489,8.536"
               style="fill:#0a2e5d;fill-opacity:1;fill-rule:nonzero;stroke:none"
               transform="matrix(1.3333333,0,0,-1.3333333,713.16173,365.20387)" />
            <path
               id="path40"
               d="m 0,0 c 0,-0.757 -0.665,-1.377 -1.377,-1.377 -0.711,0 -1.376,0.62 -1.376,1.377 0,0.757 0.619,1.377 1.376,1.377 C -0.619,1.377 0,0.757 0,0"
               style="fill:#0a2e5d;fill-opacity:1;fill-rule:nonzero;stroke:none"
               transform="matrix(1.3333333,0,0,-1.3333333,726.50053,374.38227)" />
            <path
               id="path42"
               d="M 347.325,172.987 H 49.855 v 1.033 h 297.47 z"
               style="fill:#0a2e5d;fill-opacity:1;fill-rule:nonzero;stroke:none"
               transform="matrix(1.3333333,0,0,-1.3333333,0,599.788)" />
          </g>
        </g>
      </g>
    </g>
  </g>
</svg>
