<svg xmlns="http://www.w3.org/2000/svg" height="1024" preserveAspectRatio="none" style="display: block;" version="1.1" viewBox="0 0 2048 2048" width="1024">
<defs>
	<linearGradient gradientUnits="userSpaceOnUse" id="Gradient1" x1="1601.91" x2="1575.9" y1="866.985" y2="867">
		<stop class="stop0" offset="0" stop-color="rgb(129,122,124)" stop-opacity="0.976471"></stop>
		<stop class="stop1" offset="1" stop-color="rgb(176,175,176)" stop-opacity="1"></stop>
	</linearGradient>
	<linearGradient gradientUnits="userSpaceOnUse" id="Gradient2" x1="1383.93" x2="1747.4" y1="1513.36" y2="1615.55">
		<stop class="stop0" offset="0" stop-color="rgb(161,160,162)" stop-opacity="1"></stop>
		<stop class="stop1" offset="1" stop-color="rgb(194,191,190)" stop-opacity="1"></stop>
	</linearGradient>
</defs>
<path d="M 472.379 517.804 C 477.032 510.06 498.558 489.32 506.322 484.129 C 560.444 447.943 619.379 459.06 678.923 470.328 L 682.47 471.686 C 692.674 472.1 710.312 478.383 722.597 478.892 L 723.433 479.521 C 730.405 483.036 741.603 485.429 749.243 487.634 C 754.325 489.353 759.139 490.365 764.307 492.306 C 787.067 497.996 808.748 506.833 830.567 514.674 C 933.674 551.73 1029.47 611.42 1106.76 689.22 C 1123 705.569 1150.86 736.587 1163.95 755.901 C 1201.78 755.96 1244.36 759.08 1281.02 769.19 L 1279.94 769.747 C 1270.44 774.464 1249.07 802.742 1245.72 804.377 C 1225.56 799.238 1212.07 798.946 1191.55 797.297 C 1231.93 859.843 1264.91 944.191 1282.49 1016.21 C 1286.21 1031.43 1291.47 1053.66 1293.44 1069.04 C 1309.44 1063.35 1324.2 1056.13 1339.84 1049.73 C 1351.72 1044.87 1370.08 1032.78 1382.41 1039.31 C 1394.06 1045.47 1404.24 1055.63 1414.34 1064.04 C 1455.04 1100.69 1491.27 1141.12 1522.16 1186.36 C 1533.21 1202.55 1542.38 1219.4 1552.98 1235.34 C 1554 1111.62 1534.77 998.931 1445.15 907.77 C 1403.56 864.996 1351.91 833.324 1294.93 815.647 C 1278.43 810.673 1265.2 808.908 1249.95 804.897 C 1256.23 800.375 1277.82 776.714 1283.77 769.837 C 1522.78 832.52 1630.8 1068.11 1583.05 1299.94 C 1582.4 1303.09 1580.07 1307.86 1578.67 1310.87 L 1576.53 1311.82 C 1564.16 1318.93 1553.85 1315.72 1546.02 1304.28 C 1536.92 1290.98 1529.96 1276.63 1521.86 1262.72 C 1508.45 1239.41 1493.7 1216.9 1477.68 1195.31 C 1442.96 1148.79 1416.71 1116.85 1370.33 1080.87 C 1347.34 1092.28 1323.74 1102.42 1299.64 1111.22 C 1301.15 1165.35 1305.37 1212.28 1264.87 1254.83 C 1221.19 1300.72 1164.06 1298.77 1106.71 1289.61 C 1098.35 1317.55 1087.62 1345.88 1079.65 1373.28 C 1116.5 1426.5 1198.9 1486.79 1256.51 1515.04 C 1276.55 1526.14 1299.35 1532.9 1318.75 1544.76 C 1323.86 1547.89 1325.85 1560.48 1324.6 1565.69 C 1320.25 1584 1293.4 1584.03 1278.08 1585.6 C 1203.03 1592.8 1127.29 1586.89 1054.26 1568.12 C 1050.87 1567.23 1031.67 1561.57 1029.25 1560.16 L 1024.59 1558.79 L 1023.24 1557.9 C 1015.7 1555.48 1008.34 1552.2 1000.86 1549.7 L 999.25 1549.14 C 988.032 1544.39 976.9 1539.44 965.86 1534.29 C 881.138 1494.28 802.233 1412.2 773.739 1322.53 C 769.906 1310.47 766.834 1298.09 762.582 1286.22 C 772.648 1279.13 782.261 1266.55 792.066 1258.5 C 793.614 1257.23 794.883 1256.47 794.324 1254.41 C 791.616 1252.03 764.822 1278.27 761.93 1282.14 C 754.509 1240.64 752.978 1207 758.383 1165.26 C 730.458 1142.64 704.997 1128.01 677.021 1101.61 C 586.638 1016.34 520.408 901.916 483.552 784.173 C 483.068 782.61 482.911 782.218 482.25 780.705 C 480.411 774.134 478.88 768.855 476.567 762.348 C 475.188 756.612 474.257 750.81 471.296 745.812 C 471.648 741.256 461.991 693.808 460.47 684.931 C 464.125 684.392 465.129 684.034 468.81 684.844 C 474.305 689.952 469.084 699.666 473.184 712.935 C 473.358 712.453 473.532 711.97 473.707 711.488 C 474.228 686.445 474.143 656.741 474.052 632.158 C 473.914 595.262 475.505 560.899 474.76 524.265 C 474.696 521.146 474.21 520.089 472.379 517.804 z M 867.441 1178 C 869.071 1178.6 869.403 1178.83 870.925 1179.7 C 871.719 1180.08 872.513 1180.45 873.307 1180.83 C 949.084 1214.14 1029.03 1237.01 1110.95 1248.83 C 1140.02 1252.94 1176.94 1257.97 1204.37 1246.89 C 1226.22 1238.01 1243.59 1220.73 1252.57 1198.92 C 1270.92 1154.83 1249.73 1048.64 1236.76 1003.07 C 1228.24 974.098 1218.15 945.616 1206.54 917.745 C 1161.91 809.869 1103.15 731.54 1011.11 659.871 C 961.331 621.466 906.704 589.79 848.644 565.663 C 786.378 539.997 721.673 520.698 655.519 508.063 C 635.4 504.197 609.24 499.558 588.963 499.959 C 575.045 500.117 561.286 502.939 548.429 508.272 C 525.364 518.023 509.303 533.885 499.885 557.1 C 489.431 582.865 492.916 607.733 495.623 634.602 C 503.211 709.878 522.705 783.471 553.378 852.632 C 602.961 967.445 684.42 1071.81 791.369 1137.19 C 813.735 1150.86 841.914 1168.08 866.209 1177.54 L 867.441 1178 z M 798.238 1249.87 L 798.765 1251.03 C 796.645 1257.14 803.416 1281.76 805.525 1289.03 C 820.258 1341.72 848.288 1389.74 886.924 1428.47 C 977.442 1518.68 1105.77 1547.75 1229.7 1547.67 C 1164.23 1510.27 1109.66 1473.8 1059.98 1415.22 C 1050.15 1403.63 1040.12 1392.8 1035.3 1378.36 C 1042.13 1349.04 1058.55 1312.74 1065.88 1282.48 C 982.191 1264.99 918.721 1246.24 840.044 1211.93 C 838.515 1211.31 836.999 1210.66 835.498 1209.97 C 822.457 1202.39 809.283 1196.72 796.172 1188.51 C 795.563 1199.13 793.195 1243.1 798.238 1249.87 z" fill="rgb(20,184,166)" fill-opacity="0.988235" transform="translate(0,0)"></path>
<path d="M 1180.9 871.818 L 1181.02 872.397 C 1158.25 896.433 1133.8 919.639 1110.18 942.894 L 1010.42 1041.97 C 967.563 1084.49 917.516 1137.96 872.791 1177.29 L 871.824 1176.6 C 872.064 1176.19 872.956 1174.62 873.211 1174.32 C 904.109 1138.71 941.848 1105.32 975.059 1072.27 L 1098.17 949.237 C 1122.39 924.86 1146.81 900.151 1171.51 876.22 C 1174.67 873.162 1176.59 872.612 1180.9 871.818 z" fill="rgb(183,181,181)" fill-opacity="0.956863" transform="translate(0,0)"></path>
<path d="M 798.238 1249.87 C 798.233 1246.63 798.459 1245.72 800.908 1243.44 C 810.857 1234.17 820.323 1223.52 830.988 1215.23 C 831.233 1215.04 833.945 1216.86 833.492 1217.97 C 832.412 1220.59 829.489 1222.51 827.706 1224.71 C 820.542 1230.93 805.986 1246.25 798.765 1251.03 L 798.238 1249.87 z" fill="rgb(183,181,181)" fill-opacity="0.988235" transform="translate(0,0)"></path>
<path d="M 867.441 1178 C 869.071 1178.6 869.403 1178.83 870.925 1179.7 C 861.854 1189.26 847.723 1202.22 840.044 1211.93 C 838.515 1211.31 836.999 1210.66 835.498 1209.97 C 840.201 1205.02 863.615 1180.52 867.441 1178 z" fill="rgb(1,138,137)" transform="translate(0,0)"></path>
<path d="M 1210.21 838.671 C 1211.03 838.723 1213.48 838.528 1213.98 839.56 C 1209.62 844.776 1194.8 858.316 1189.56 862.088 C 1178.58 863.58 1208.49 840.091 1210.21 838.671 z" fill="rgb(1,138,137)" transform="translate(0,0)"></path>
<path d="M 471.296 745.812 C 474.257 750.81 475.188 756.612 476.567 762.348 C 473.947 763.098 474.874 776.628 474.69 779.756 C 477.321 786.967 479.89 773.979 479.762 792.187 C 477.045 795.138 475.591 796.737 475.522 800.792 C 475.318 812.887 475.739 825.161 475.713 837.263 C 475.422 867.581 475.463 897.901 475.837 928.218 L 475.161 1143.02 L 475.322 1439.94 C 475.397 1466.71 475.338 1493.48 475.145 1520.25 C 474.995 1534.58 473.258 1553.02 475.128 1566.63 C 486.623 1556.22 497.678 1544.91 508.621 1533.89 C 585.68 1456.29 663.953 1379.91 741.34 1302.66 C 747.157 1296.85 754.194 1288.92 760.613 1283.92 L 761.665 1287.3 C 758.43 1293.66 719.976 1329.83 712.24 1337.6 L 575.758 1473.74 C 544.788 1504.3 511.218 1535.92 481.997 1567.64 C 486.571 1568.13 493.921 1569.13 498.298 1569.07 L 499.967 1571.04 C 491.159 1571.07 483.541 1571.68 474.958 1573.51 C 474.192 1628.69 476.294 1685.94 475.158 1741.29 C 474.714 1762.95 476.292 1809.03 471.598 1828.71 C 468.598 1806.48 469.695 1767.32 469.595 1744 C 469.36 1689.49 470.938 1633.72 470.2 1579.27 C 454.496 1593.97 438.997 1608.88 423.707 1624 C 398.404 1649.23 358.043 1690.87 330.376 1717.05 C 329.68 1717.15 328.984 1717.24 328.289 1717.34 L 326.72 1715.89 C 326.774 1715.12 326.827 1714.35 326.88 1713.58 C 366.922 1672.99 429.598 1611.6 467.761 1573.28 C 441.139 1571.12 408.778 1572.01 381.592 1572.08 C 338.06 1572.57 294.524 1572.35 250.999 1571.43 L 252.414 1568.76 C 317.056 1566.69 382.266 1569.27 446.968 1568.2 C 454.342 1568.08 461.823 1567.67 469.134 1567.63 C 470.809 1552.12 470.063 1525.41 470.04 1509.05 L 469.681 1403.7 L 469.613 1185.76 C 469.528 1132.21 468.776 1078.92 469.994 1025.37 L 470.776 1023.1 C 469.463 1017.12 470.005 959.794 470.118 951.048 C 470.986 883.876 468.164 812.485 471.296 745.812 z" fill="rgb(183,181,181)" transform="translate(0,0)"></path>
<path d="M 1573.97 474.795 C 1577.97 457.357 1575.89 418.574 1575.58 399.139 C 1574.94 359.328 1574.94 319.509 1575.58 279.698 C 1575.69 264.171 1574.57 240.281 1575.96 225.724 L 1577.36 224.791 L 1576.96 223.521 C 1582.94 236.184 1577.41 431.763 1580.29 468.041 C 1591.74 459.01 1614.49 435.671 1625.68 424.663 L 1695.19 356.585 C 1700.11 351.67 1716.12 333.276 1720.7 331.129 L 1722.33 331.969 C 1722.43 333.917 1722.46 334.673 1720.82 336.241 C 1693.41 362.304 1667.68 389.989 1640.58 416.43 C 1621 435.528 1599.22 455.38 1581.11 475.805 L 1580.46 478.299 L 1583.7 479.807 C 1582.18 480.494 1580.01 481.03 1579.83 482.134 C 1578.4 491.192 1579.2 506.425 1579.31 515.66 L 1579.61 595.545 C 1579.75 609.975 1580.83 670.273 1578.15 680.162 L 1576.03 681.052 C 1574.67 654.367 1575.04 626.548 1575 599.762 L 1575.05 482.676 C 1549.58 506.467 1526.3 530.505 1501.62 555.025 L 1366.17 689.765 C 1342.68 713.01 1316.76 740.404 1292.26 762.172 L 1289.16 760.907 C 1294.04 752.358 1345.81 703.137 1355.58 693.341 L 1567.59 480.92 C 1537.26 478.584 1502.41 479.743 1472.02 479.911 L 1344.85 479.713 L 875 479.073 C 840.38 478.848 802.742 480.64 769.052 479.927 C 765.549 479.588 734.951 479.479 731.353 480.116 C 728.579 479.877 726.23 479.492 723.433 479.521 L 722.597 478.892 C 726.397 477.766 745.19 477.347 749.856 477.18 C 785.644 475.896 821.527 476.435 857.339 476.555 L 1023.02 476.169 C 1025.23 462.9 1023.75 430.831 1023.66 415.627 C 1023.23 368.842 1023.2 322.054 1023.56 275.268 C 1023.66 266.074 1023.7 256.82 1023.77 247.628 C 1023.81 241.936 1021.7 226.761 1025.66 223.331 L 1027.42 224.611 C 1029.39 275.898 1027.13 328.402 1027.91 379.764 C 1028.21 399.652 1027.56 419.96 1027.12 439.851 C 1026.86 451.005 1027.7 465.047 1026.28 475.787 C 1039.27 477.129 1056.33 476.489 1069.79 476.398 L 1137.1 476.178 C 1212.34 476.334 1291.43 477.384 1366.54 475.756 C 1367.69 467.616 1366.74 426.913 1368.02 425.189 L 1370.18 425.306 C 1372.09 428.552 1369.23 462.918 1370.95 474.304 L 1371.19 475.813 C 1405.28 477.052 1442.58 475.903 1477.08 476.151 C 1497.39 476.361 1517.71 476.363 1538.02 476.155 C 1548.59 476.061 1563.83 476.427 1573.97 474.795 z" fill="rgb(183,181,181)" transform="translate(0,0)"></path>
<path d="M 1576.53 1311.82 L 1578.67 1310.87 C 1577.24 1324.49 1580.69 1341.45 1578.32 1355.93 C 1577.48 1358.35 1577.11 1361.51 1578.55 1363.75 C 1580.69 1411.72 1578.84 1462.29 1579.59 1510.42 C 1579.76 1520.97 1578.62 1560.1 1579.82 1567.27 C 1583.01 1568.55 1583.1 1568.64 1586.69 1569.15 L 1587.39 1569.94 L 1586.76 1571.57 L 1583.03 1572.37 L 1582.45 1573.73 C 1589.97 1583.95 1614.84 1608.18 1624.49 1617.67 L 1689.8 1681.79 C 1699.68 1691.48 1717.91 1708.07 1725.05 1719.25 C 1714.4 1712.98 1707.02 1704.13 1698.1 1695.82 C 1658.36 1658.78 1621.39 1615.96 1580.07 1580.82 C 1580.12 1607.59 1581.43 1814.82 1577.15 1822.56 C 1571.64 1811.98 1576.99 1604.72 1574.86 1572.49 C 1525.71 1570.35 1475.89 1571.65 1426.74 1572.07 C 1418.78 1572.14 1377.48 1572.75 1370.93 1571.74 C 1368.77 1571.53 1368.82 1571.41 1366.78 1571.98 L 1366.14 1572.2 C 1365.71 1571.11 1365.35 1570.26 1365.01 1569.13 C 1398.8 1566.88 1438.3 1568.35 1472.44 1568.74 C 1504.85 1568.88 1537.26 1568.67 1569.66 1568.12 C 1563.7 1562.36 1562.91 1561.12 1558.54 1554.26 C 1564.57 1557.36 1569.82 1562.11 1575.1 1566.44 L 1575.72 1367.5 C 1575.81 1352.92 1572.95 1325.2 1576.53 1311.82 z" fill="url(#Gradient2)" transform="translate(0,0)"></path>
<path d="M 469.451 523.131 C 469.859 523.976 470.649 525.469 470.607 526.457 C 468.521 576.648 472.169 627.08 470.378 677.167 C 470.278 679.991 462.036 681.343 459.838 681.744 C 458.97 669.711 455.523 653.468 453.93 641.096 C 448.28 597.19 446.833 562.118 469.451 523.131 z" fill="rgb(20,184,166)" transform="translate(0,0)"></path>
<path d="M 468.026 475.844 C 457.134 462.589 442.892 449.889 430.573 437.75 L 358.93 367.461 C 351.732 360.309 330.448 341.62 328.082 332.952 L 329.05 332.292 C 334.429 335.194 340.466 342.155 344.932 346.567 C 386.163 387.298 426.601 429.523 469.318 468.677 L 470.742 468.264 C 472.956 469.185 472.105 469.165 474.296 469.022 C 475.242 471.547 474.033 472.204 476.227 474.795 C 485.77 478.874 504.807 474.874 508.064 478.488 C 504.32 482.409 491.394 478.593 485.795 480.87 C 482.947 482.029 483.474 482.447 481.867 485.711 C 476.951 488.005 481.332 485.479 474.892 483.988 C 473.191 491.115 475.657 504.219 472.253 514.629 L 471.898 514.596 C 469.355 507.425 470.957 488.377 471.965 480.516 C 459.326 478.196 419.264 479.53 404.055 479.588 C 362.043 479.959 320.028 479.845 278.018 479.246 C 261.463 479.006 242.679 479.419 226.343 478.286 C 234.167 476.348 265.228 476.996 276.07 476.857 C 318.124 476.303 360.181 476.065 402.238 476.142 C 418.677 476.148 451.244 477.338 466.538 475.984 L 468.026 475.844 z" fill="rgb(183,181,181)" transform="translate(0,0)"></path>
<path d="M 1024.59 1558.79 L 1029.25 1560.16 L 1026.37 1565.57 C 1027.75 1569.77 1043.2 1568.85 1049.05 1569.83 C 1043.62 1570.77 1032.63 1571.52 1027.13 1571.16 L 1024.24 1572.91 C 1013.54 1567.65 720.312 1573.63 683.181 1571.81 C 681.545 1571.73 680.374 1571.61 678.739 1571.76 C 675.523 1572.44 639.543 1571.97 633.724 1571.95 C 589.136 1572.03 544.549 1571.72 499.967 1571.04 L 498.298 1569.07 C 661.842 1567.83 825.393 1567.82 988.938 1569.03 C 992.209 1569.62 1004.36 1570.46 1006.84 1568.34 C 1018.31 1567.06 1024.28 1572.54 1024.59 1558.79 z" fill="rgb(156,153,153)" transform="translate(0,0)"></path>
<path d="M 1576.03 681.052 L 1578.15 680.162 L 1578.17 680.931 L 1578.14 681.955 C 1578.09 683.018 1578.24 683.78 1578.66 684.764 C 1579.94 725.161 1579.2 767.687 1579.21 808.295 C 1579.22 878.581 1581.3 952.793 1578.86 1022.7 C 1587.19 1022.04 1594.96 1022.8 1603.19 1022.3 L 1602.81 1024 C 1596.64 1024.06 1593.02 1023.56 1586.88 1024.68 C 1582.97 1025.36 1582.14 1025.33 1578.13 1025.21 C 1578.12 1035.15 1578.47 1050.5 1577.08 1059.96 C 1575.03 1046.33 1575.35 1036.28 1575.17 1022.55 C 1574.82 995.187 1575.09 967.851 1575.08 940.482 L 1576.03 681.052 z" fill="url(#Gradient1)" transform="translate(0,0)"></path>
<path d="M 470.742 468.264 C 467.053 399.464 471.343 328.077 469.899 258.999 C 469.66 247.593 469.526 235.039 470.326 223.699 L 471.642 222.613 C 472.944 222.964 474.385 223.004 474.408 224.005 C 475.945 290.095 474.743 407.675 474.296 469.022 C 472.105 469.165 472.956 469.185 470.742 468.264 z" fill="rgb(183,181,181)" transform="translate(0,0)"></path>
<path d="M 1024.24 1572.91 L 1027.13 1571.16 C 1027.41 1597.05 1029.8 1815.1 1026.3 1822.56 L 1025.11 1823.18 C 1022.86 1819.37 1023.57 1597.54 1024.24 1572.91 z" fill="rgb(183,181,181)" transform="translate(0,0)"></path>
<path d="M 472.379 517.804 C 474.21 520.089 474.696 521.146 474.76 524.265 C 475.505 560.899 473.914 595.262 474.052 632.158 C 474.143 656.741 474.228 686.445 473.707 711.488 C 473.532 711.97 473.358 712.453 473.184 712.935 C 469.084 699.666 474.305 689.952 468.81 684.844 C 465.129 684.034 464.125 684.392 460.47 684.931 L 459.838 681.744 C 462.036 681.343 470.278 679.991 470.378 677.167 C 472.169 627.08 468.521 576.648 470.607 526.457 C 470.649 525.469 469.859 523.976 469.451 523.131 C 469.802 522.116 471.738 518.923 472.379 517.804 z" fill="rgb(1,138,137)" fill-opacity="0.980392" transform="translate(0,0)"></path>
<path d="M 238.282 1024.68 C 234.043 1024.77 231.125 1024.68 226.894 1024.37 L 226.834 1023.77 C 247.914 1021.43 461.353 1019.85 470.776 1023.1 L 469.994 1025.37 C 465.336 1026.19 421.971 1025.1 413.072 1025.11 C 355.406 1025.28 297.739 1025.14 240.074 1024.72 C 239.435 1024.13 239.698 1024.32 239.26 1024.06 C 238.766 1024.08 238.775 1024.23 238.282 1024.68 z" fill="rgb(156,153,153)" fill-opacity="0.980392" transform="translate(0,0)"></path>
<path d="M 1583.7 479.807 L 1580.46 478.299 L 1581.11 475.805 C 1604.94 476.523 1819.42 475.971 1822.86 477.927 C 1811.5 480.334 1780.03 479.19 1767.2 479.2 L 1649.67 478.98 C 1631.5 478.94 1601.21 478.091 1583.7 479.807 z" fill="rgb(156,153,153)" transform="translate(0,0)"></path>
<path d="M 1603.19 1022.3 C 1649.94 1021.16 1698.24 1022.27 1745.15 1021.96 C 1759.89 1021.87 1809.93 1021.04 1822.34 1022.92 L 1822.73 1023.47 C 1812.95 1025.9 1766.61 1024.68 1753.11 1024.7 C 1706.56 1025.07 1660.01 1025.13 1613.46 1024.87 C 1609.39 1024.3 1606.94 1024.17 1602.81 1024 L 1603.19 1022.3 z" fill="rgb(156,153,153)" fill-opacity="0.984314" transform="translate(0,0)"></path>
<path d="M 1600.05 1569.09 C 1614.6 1568.38 1816.06 1567.87 1822.32 1570.21 C 1802.65 1571.6 1780.83 1571.18 1760.92 1571.01 C 1703.1 1570.52 1644.51 1572.95 1586.76 1571.57 L 1587.39 1569.94 C 1593.42 1569.96 1594.25 1570.31 1600.05 1569.09 z" fill="rgb(120,116,116)" fill-opacity="0.988235" transform="translate(0,0)"></path>
<path d="M 999.25 1549.14 L 1000.86 1549.7 C 1008.34 1552.2 1015.7 1555.48 1023.24 1557.9 C 1018.46 1557.71 1011.43 1558.8 1007.7 1563.46 C 1007.57 1563.63 1006.93 1567.83 1006.84 1568.34 C 1004.36 1570.46 992.209 1569.62 988.938 1569.03 C 987.03 1561.2 991.099 1551.5 999.25 1549.14 z" fill="rgb(250,249,248)" fill-opacity="0.584314" transform="translate(0,0)"></path>
<path d="M 1366.78 1571.98 C 1368.82 1571.41 1368.77 1571.53 1370.93 1571.74 C 1370.96 1588.71 1371.73 1606 1370.86 1622.82 C 1370.83 1623.35 1366.13 1623.24 1366.2 1622.35 C 1367.22 1609.6 1363.85 1583.52 1366.78 1571.98 z" fill="rgb(183,181,181)" transform="translate(0,0)"></path>
<path d="M 678.739 1571.76 C 680.374 1571.61 681.545 1571.73 683.181 1571.81 C 682.373 1588.09 684.507 1607.04 681.832 1622.7 C 681.777 1623.02 678.2 1623.84 678.2 1623 C 678.201 1606.7 676.925 1588 678.739 1571.76 z" fill="rgb(183,181,181)" transform="translate(0,0)"></path>
<path d="M 1281.02 769.19 L 1283.8 769.302 L 1283.77 769.837 C 1277.82 776.714 1256.23 800.375 1249.95 804.897 C 1248.9 805.165 1249.08 805.081 1248.18 805.693 L 1245.33 805.181 L 1245.72 804.377 C 1249.07 802.742 1270.44 774.464 1279.94 769.747 L 1281.02 769.19 z" fill="rgb(1,138,137)" transform="translate(0,0)"></path>
<path d="M 731.353 480.116 C 734.951 479.479 765.549 479.588 769.052 479.927 C 770.542 485.421 767.708 487.464 764.307 492.306 C 759.139 490.365 754.325 489.353 749.243 487.634 C 750.6 486.651 752.591 481.148 752.609 481.392 C 750.041 479.511 734.437 481.873 731.353 480.116 z" fill="rgb(250,249,248)" fill-opacity="0.329412" transform="translate(0,0)"></path>
<path d="M 761.93 1282.14 C 764.822 1278.27 791.616 1252.03 794.324 1254.41 C 794.883 1256.47 793.614 1257.23 792.066 1258.5 C 782.261 1266.55 772.648 1279.13 762.582 1286.22 L 761.665 1287.3 L 760.613 1283.92 C 760.945 1283.5 761.675 1282.64 761.93 1282.14 z" fill="rgb(1,138,137)" transform="translate(0,0)"></path>
<path d="M 1006.84 1568.34 C 1006.93 1567.83 1007.57 1563.63 1007.7 1563.46 C 1011.43 1558.8 1018.46 1557.71 1023.24 1557.9 L 1024.59 1558.79 C 1024.28 1572.54 1018.31 1567.06 1006.84 1568.34 z" fill="rgb(250,249,248)" fill-opacity="0.905882" transform="translate(0,0)"></path>
<path d="M 1245.33 805.181 L 1248.18 805.693 C 1242.78 812.356 1229.65 825.358 1222.72 830.038 C 1220.58 830.457 1218.43 830.836 1216.27 831.176 C 1225.57 823.431 1236.43 810.957 1245.33 805.181 z" fill="rgb(183,181,181)" fill-opacity="0.968627" transform="translate(0,0)"></path>
<path d="M 680.273 462.249 C 680.022 456.54 677.6 426.794 681.633 424.762 C 683.03 425.499 682.591 466.487 682.47 471.686 L 678.923 470.328 L 680.909 469.919 C 681.098 467.043 681.945 464.61 680.273 462.249 z" fill="rgb(137,134,135)" transform="translate(0,0)"></path>
<path d="M 442.608 1360.1 C 445.055 1360.01 466.411 1359.44 468.389 1360.17 C 470.875 1361.08 467.589 1365.79 465.493 1363.28 C 458.085 1362.69 450.844 1363.39 443.603 1362.87 C 441.16 1362.18 439.784 1362.04 437.444 1361.51 C 438.784 1361.05 440.198 1360.82 441.562 1360.42 L 442.608 1360.1 z" fill="rgb(183,181,181)" fill-opacity="0.980392" transform="translate(0,0)"></path>
<path d="M 474.69 779.756 C 474.874 776.628 473.947 763.098 476.567 762.348 C 478.88 768.855 480.411 774.134 482.25 780.705 C 477.343 776.065 480.371 773.167 474.69 779.756 z" fill="rgb(250,249,248)" fill-opacity="0.360784" transform="translate(0,0)"></path>
<path d="M 250.999 1571.43 C 242.517 1571.37 234.04 1570.93 225.546 1571.18 C 224.905 1571.2 224.768 1570.1 224.932 1569.55 C 225.892 1568.61 249.128 1568.78 252.414 1568.76 L 250.999 1571.43 z" fill="rgb(137,134,135)" transform="translate(0,0)"></path>
<path d="M 1586.33 681.063 C 1591.39 681.013 1623.63 680.059 1625.58 682.022 C 1618.15 682.408 1610.87 681.692 1603.6 682.835 C 1598.53 683.123 1591.94 683.037 1586.82 682.77 L 1586.33 681.063 z" fill="rgb(86,80,81)" fill-opacity="0.741176" transform="translate(0,0)"></path>
<path d="M 456.656 682.028 C 456.437 682.225 455.77 682.894 455.43 682.87 C 451.272 682.575 421.812 684.27 421.258 681.915 C 422.458 680.091 439.721 681.09 442.442 681.241 C 449.066 682.639 450.032 681.707 456.656 682.028 z" fill="rgb(86,80,81)" fill-opacity="0.870588" transform="translate(0,0)"></path>
<path d="M 474.69 779.756 C 480.371 773.167 477.343 776.065 482.25 780.705 C 482.911 782.218 483.068 782.61 483.552 784.173 C 482.299 786.854 480.994 789.5 479.762 792.187 C 479.89 773.979 477.321 786.967 474.69 779.756 z" fill="rgb(250,249,248)" fill-opacity="0.607843" transform="translate(0,0)"></path>
<path d="M 1334.76 1569.25 C 1340.08 1569.12 1347.73 1568.7 1352.86 1568.97 L 1352.84 1571.12 C 1346.78 1571.19 1329.77 1571.35 1324.94 1570.08 C 1326.44 1570.05 1327.95 1570.04 1329.45 1570.06 C 1332.05 1570.1 1332.87 1570.54 1334.76 1569.25 z" fill="rgb(86,80,81)" fill-opacity="0.894118" transform="translate(0,0)"></path>
<path d="M 1594.2 1362.12 C 1594.06 1361.96 1593.91 1361.79 1593.76 1361.63 C 1594.6 1360.33 1624.53 1360.96 1628.09 1361.13 C 1621.98 1362.61 1601.6 1361.92 1594.2 1362.12 z" fill="rgb(86,80,81)" transform="translate(0,0)"></path>
<path d="M 1628.09 1361.13 C 1627.9 1361.76 1627.81 1362.48 1627.34 1362.92 C 1624.84 1363.48 1597.85 1363.07 1594.2 1362.12 C 1601.6 1361.92 1621.98 1362.61 1628.09 1361.13 z" fill="rgb(120,116,116)" fill-opacity="0.470588" transform="translate(0,0)"></path>
<path d="M 1352.86 1568.97 C 1356.91 1568.92 1360.96 1568.97 1365.01 1569.13 C 1365.35 1570.26 1365.71 1571.11 1366.14 1572.2 C 1360.78 1571.64 1358.34 1571.21 1352.84 1571.12 L 1352.86 1568.97 z" fill="rgb(156,153,153)" fill-opacity="0.980392" transform="translate(0,0)"></path>
<path d="M 428.764 1362.95 C 427.838 1362.99 423.383 1363.28 422.999 1362.97 C 417.575 1358.58 431.566 1360.06 433.154 1360.08 L 433.807 1360.78 C 433.928 1360.99 434.049 1361.2 434.17 1361.4 C 433.774 1362.22 429.935 1362.65 428.764 1362.95 z" fill="rgb(156,153,153)" fill-opacity="0.984314" transform="translate(0,0)"></path>
<path d="M 433.154 1360.08 C 436.305 1360.05 439.457 1360.06 442.608 1360.1 L 441.562 1360.42 C 440.198 1360.82 438.784 1361.05 437.444 1361.51 C 439.784 1362.04 441.16 1362.18 443.603 1362.87 C 438.657 1362.96 433.71 1362.99 428.764 1362.95 C 429.935 1362.65 433.774 1362.22 434.17 1361.4 C 434.049 1361.2 433.928 1360.99 433.807 1360.78 L 433.154 1360.08 z" fill="rgb(156,153,153)" fill-opacity="0.878431" transform="translate(0,0)"></path>
<path d="M 1289.16 760.907 L 1292.26 762.172 C 1288.86 765.816 1288.38 767.883 1283.8 769.302 C 1284.41 768.101 1288.28 761.938 1289.16 760.907 z" fill="rgb(183,181,181)" fill-opacity="0.85098" transform="translate(0,0)"></path>
<path d="M 1222.72 830.038 C 1221.28 831.595 1219.86 833.166 1218.45 834.754 C 1215.98 837.503 1214.12 833.445 1216.27 831.176 C 1218.43 830.836 1220.58 830.457 1222.72 830.038 z" fill="rgb(183,181,181)" fill-opacity="0.152941" transform="translate(0,0)"></path>
<path d="M 1602.81 1024 C 1606.94 1024.17 1609.39 1024.3 1613.46 1024.87 C 1606.36 1025.23 1593.91 1025.16 1586.88 1024.68 C 1593.02 1023.56 1596.64 1024.06 1602.81 1024 z" fill="rgb(137,134,135)" fill-opacity="0.556863" transform="translate(0,0)"></path>
<path d="M 1578.55 1363.75 C 1577.11 1361.51 1577.48 1358.35 1578.32 1355.93 C 1578.41 1357.16 1578.34 1359.72 1579.23 1360.72 C 1580.72 1360.73 1582.56 1360.47 1583.92 1361.25 C 1584.9 1363.05 1581.09 1363.53 1579.48 1362.44 C 1579.38 1362.58 1578.71 1363.49 1578.55 1363.75 z" fill="rgb(156,153,153)" fill-opacity="0.764706" transform="translate(0,0)"></path>
<path d="M 1625.58 682.022 C 1623.49 683.884 1607.22 682.972 1603.6 682.835 C 1610.87 681.692 1618.15 682.408 1625.58 682.022 z" fill="rgb(120,116,116)" fill-opacity="0.47451" transform="translate(0,0)"></path>
<path d="M 1579.35 680.997 C 1582.03 680.909 1583.67 680.877 1586.33 681.063 L 1586.82 682.77 C 1583.95 683.085 1582.84 683.296 1580.02 683.972 C 1579.56 682.434 1579.51 682.484 1579.35 680.997 z" fill="rgb(137,134,135)" fill-opacity="0.945098" transform="translate(0,0)"></path>
<path d="M 442.442 681.241 C 446.14 681.028 449.843 680.934 453.547 680.96 C 455.264 680.986 455.508 680.973 456.656 682.028 C 450.032 681.707 449.066 682.639 442.442 681.241 z" fill="rgb(120,116,116)" fill-opacity="0.494118" transform="translate(0,0)"></path>
<path d="M 1586.69 1569.15 C 1591.14 1569.01 1595.6 1568.99 1600.05 1569.09 C 1594.25 1570.31 1593.42 1569.96 1587.39 1569.94 L 1586.69 1569.15 z" fill="rgb(156,153,153)" fill-opacity="0.619608" transform="translate(0,0)"></path>
<path d="M 1324.94 1570.08 C 1329.28 1568.8 1330.09 1568.71 1334.76 1569.25 C 1332.87 1570.54 1332.05 1570.1 1329.45 1570.06 C 1327.95 1570.04 1326.44 1570.05 1324.94 1570.08 z" fill="rgb(120,116,116)" fill-opacity="0.564706" transform="translate(0,0)"></path>
<path d="M 680.273 462.249 C 681.945 464.61 681.098 467.043 680.909 469.919 C 680.08 466.296 679.838 465.876 680.273 462.249 z" fill="rgb(120,116,116)" fill-opacity="0.709804" transform="translate(0,0)"></path>
<path d="M 1578.17 680.931 L 1579.35 680.997 C 1579.51 682.484 1579.56 682.434 1580.02 683.972 C 1579.57 684.236 1579.11 684.5 1578.66 684.764 C 1578.24 683.78 1578.09 683.018 1578.14 681.955 L 1578.17 680.931 z" fill="rgb(183,181,181)" fill-opacity="0.682353" transform="translate(0,0)"></path>
<path d="M 238.282 1024.68 C 238.775 1024.23 238.766 1024.08 239.26 1024.06 C 239.698 1024.32 239.435 1024.13 240.074 1024.72 C 239.477 1024.71 238.879 1024.69 238.282 1024.68 z" fill="rgb(86,80,81)" fill-opacity="0.713725" transform="translate(0,0)"></path>
<metadata><recraft-signature>{"signed_by": "recraft", "signature_b64": "vqFcDJTxtapYnyzvIZb0Rc+hMYhenwv/KZxd0IYN7dzYIgM5KLgnJWo2Fod2T18yr4fYR8s+OB0FK8mnVZXACg==", "signing_algo": "Ed25519", "generation_timestamp": 1784704139, "identifier": "f1d3e924-f341-4625-b802-0d482202ced9"}</recraft-signature></metadata></svg>