<svg xmlns="http://www.w3.org/2000/svg" height="1024" preserveAspectRatio="none" style="display: block;" version="1.1" viewBox="0 0 2048 2048" width="1024">
<path d="M 1019.07 471.189 C 1047.14 469.724 1045.21 488.989 1045.42 509.8 C 1045.96 563.447 1045.32 617.269 1046.21 670.895 C 1069.06 671.614 1094.81 671.054 1117.84 671.051 L 1245.41 671.025 C 1272.01 670.984 1300.34 670.437 1326.92 671.578 C 1330.49 671.731 1334.19 673.545 1336.93 675.882 C 1341.43 679.756 1344.06 685.359 1344.18 691.293 C 1344.32 696.55 1342.34 701.642 1338.67 705.417 C 1329.44 714.913 1310.49 712.187 1298.03 712.134 L 1245.94 712.089 C 1180.92 712.104 1109.72 710.721 1045.2 712.37 C 1044.41 735.807 1044.79 764.309 1045.19 787.889 L 1225.73 788.129 C 1271.1 788.113 1329.08 785.529 1372.21 794.827 C 1414.01 803.836 1465.28 831.682 1495.39 861.965 C 1535.38 902.007 1560.87 954.249 1567.82 1010.41 C 1571.33 1039.86 1570.89 1076.54 1570.97 1106.57 L 1571.05 1229.34 C 1570.63 1307.89 1549.62 1371.19 1492.25 1427.21 C 1470.9 1448.07 1457.05 1457.25 1430.97 1470.85 C 1375.29 1499.86 1329.64 1498.98 1269.72 1499.1 C 1236.61 1499.17 1203.5 1499.05 1170.39 1498.74 C 1159.56 1498 1149.1 1496.94 1138.7 1493.75 C 1102.2 1482.26 1075.07 1451.49 1068.21 1413.84 C 1064.44 1394.13 1069.7 1369.78 1054.12 1354.49 C 1038.29 1338.95 1017.6 1336.8 999.659 1349.99 C 974.081 1368.8 985.481 1396.38 978.85 1422.64 C 974.703 1439.06 965.6 1454.19 953.969 1466.43 C 932.21 1488.98 898.937 1499.93 867.693 1498.96 C 811.825 1497.24 749.361 1503.12 694.298 1495.83 C 642.255 1488.61 593.917 1464.83 556.423 1428.02 C 506.912 1379.97 479.978 1319.35 479.062 1250.01 L 478.128 1117.29 C 477.893 1085.65 477.53 1054.32 479.405 1022.73 C 483.044 961.432 511.558 905.457 554.269 862.03 C 585.07 831.061 623.565 808.856 665.794 797.7 C 715.99 784.492 774.615 788.194 827.048 788.2 L 1004.01 788.038 L 1004.12 578.825 C 1004.11 550.253 1003.4 520.859 1004.33 492.252 C 1004.7 480.765 1009.3 476.282 1019.07 471.189 z M 1180.24 1457.37 C 1210.93 1457.7 1241.63 1457.85 1272.33 1457.8 C 1293.12 1457.81 1316.76 1458.38 1337.27 1456.43 C 1385.36 1452.06 1430.51 1431.35 1465.18 1397.74 C 1512.39 1351.64 1529.68 1294.25 1530.17 1230.05 C 1530.43 1188.9 1530.47 1147.75 1530.3 1106.61 C 1530.1 1046.34 1534.31 993.893 1502.44 939.095 C 1461.34 868.436 1395.67 829.495 1313.26 828.885 L 887.835 828.925 L 771.345 828.763 C 761.496 828.729 723.877 828.038 715.411 829.385 C 672.436 834.513 640.531 843.869 605.248 870.445 C 552.22 910.386 521.383 968.525 519.416 1034.81 C 518.998 1048.91 519.239 1063.24 519.275 1077.43 L 519.55 1158.53 L 519.855 1219.58 C 519.897 1236.97 519.499 1253.59 521.53 1270.95 C 528.35 1329.24 558.008 1377.84 603.755 1413.89 C 669.218 1465.48 729.497 1457.87 806.465 1458.05 C 833.217 1458.11 862.241 1458.82 888.663 1456.8 C 902.77 1455.73 922.367 1444.45 930.1 1432.72 C 955.101 1394.8 926.788 1358.7 968.145 1322.39 C 980.888 1311.2 991.297 1305.2 1008.9 1301.95 C 1030.23 1298.02 1053.83 1302.76 1071.59 1315.15 C 1087.82 1326.47 1103.41 1347.53 1105.86 1367.32 C 1109.47 1396.48 1103.23 1423.39 1131.05 1444.37 C 1145.92 1455.58 1162.21 1457.03 1180.24 1457.37 z" fill="rgb(20,184,166)" transform="translate(0,0)"></path>
<path d="M 775.61 944.599 C 883.679 935.148 978.867 1015.29 987.973 1123.38 C 997.078 1231.48 916.637 1326.41 808.509 1335.17 C 700.87 1343.89 606.46 1263.9 597.395 1156.28 C 588.331 1048.67 668.028 954.007 775.61 944.599 z M 803.381 1296.19 C 889.728 1290.34 954.949 1215.54 948.992 1129.2 C 943.035 1042.86 868.16 977.733 781.827 983.795 C 695.643 989.847 630.649 1064.57 636.596 1150.76 C 642.543 1236.95 717.183 1302.03 803.381 1296.19 z" fill="rgb(20,184,166)" transform="translate(0,0)"></path>
<path d="M 1244.54 944.515 C 1352.56 938.09 1445.32 1020.5 1451.66 1128.52 C 1458 1236.55 1375.53 1329.25 1267.49 1335.51 C 1159.58 1341.76 1067 1259.39 1060.67 1151.48 C 1054.33 1043.57 1136.63 950.932 1244.54 944.515 z M 1265.54 1295.86 C 1351.23 1290.11 1416.09 1216.08 1410.52 1130.38 C 1404.96 1044.69 1331.08 979.665 1245.37 985.037 C 1159.39 990.427 1094.12 1064.59 1099.7 1150.56 C 1105.28 1236.53 1179.59 1301.63 1265.54 1295.86 z" fill="rgb(20,184,166)" transform="translate(0,0)"></path>
<metadata><recraft-signature>{"signed_by": "recraft", "signature_b64": "cPKLk7XIaSrVl9QiySe1Jg3l8IQpN95f6MzsTY0nFKUDgvoYQTfLAGURM+Wqv8qfpr5XeA+an5MQFYpx9TK0BA==", "signing_algo": "Ed25519", "generation_timestamp": 1784704127, "identifier": "67b643bb-8a07-4f06-9c6b-8af7660e44a5"}</recraft-signature></metadata></svg>