<svg xmlns="http://www.w3.org/2000/svg" height="1024" preserveAspectRatio="none" style="display: block;" version="1.1" viewBox="0 0 2048 2048" width="1024">
<path d="M 1021.72 455.221 C 1023.13 455.283 1024.54 455.39 1025.94 455.543 C 1033.26 456.409 1036.43 460.022 1040.67 465.491 C 1042.97 483.13 1041.78 511.548 1042.03 530.244 C 1042.65 575.534 1041.05 621.616 1042.06 666.869 C 1209.98 676.914 1350.19 793.583 1381.61 960.379 C 1384.42 975.269 1385.38 990.973 1387.38 1006.09 C 1425.15 1005.56 1462.93 1005.31 1500.7 1005.33 C 1517 1005.37 1558.7 1004.05 1572.13 1008.75 C 1582.93 1019.93 1580.97 1037.89 1564.97 1039.63 C 1549.16 1041.35 1528.09 1040.12 1511.86 1040.08 C 1470.38 1039.87 1428.9 1039.86 1387.42 1040.07 C 1384.65 1064.67 1382.19 1088.03 1375.62 1111.97 C 1332.9 1267.56 1202.03 1371.92 1042.48 1381.33 C 1041.66 1398.13 1042.21 1418.16 1042.26 1435.18 L 1042.4 1527.24 C 1042.38 1543.29 1043.42 1567.77 1040.47 1583.34 C 1039.6 1587.97 1031.86 1591.64 1027.85 1593.55 C 1018.27 1594 1008.98 1588 1008.59 1577.84 C 1007.81 1556.96 1008.16 1535.81 1008.14 1514.87 L 1007.96 1381.43 C 936.281 1376.33 879.905 1360.56 820.094 1319.83 C 722.293 1253.25 671.065 1157.42 663.492 1040.54 C 649.528 1039.68 631.221 1040.28 616.789 1040.29 L 531.047 1040.23 C 516.427 1040.2 500.344 1040.66 485.905 1039.69 C 468.138 1038.5 465.447 1006.97 486.664 1006.22 C 545.644 1004.15 604.909 1006.13 663.871 1005.6 C 665.246 935.619 701.142 849.731 746.649 797.254 C 816.899 716.243 902.57 675.689 1007.97 667.028 L 1008.13 467.696 C 1012.85 460.292 1013.62 458.554 1021.72 455.221 z M 788.551 1039.53 C 788.898 1143.65 880.589 1239.99 981.154 1254.74 C 987.97 1255.74 1001.03 1259.03 1007.37 1258.19 L 1007.86 1257.63 C 1008.09 1243.77 1007.67 1228.43 1008.18 1214.91 C 1011.84 1209.62 1015.41 1205.12 1022.18 1204.16 C 1049.54 1200.29 1041.31 1241.54 1043.22 1258.93 C 1164.43 1247.49 1249.5 1160.63 1262.62 1040.32 C 1253.17 1040.08 1181.57 1049.1 1205.06 1010.98 C 1210.71 1001.81 1250.11 1005.66 1263.18 1005.58 C 1252.41 883.373 1162.89 801.835 1043.29 789.334 C 1043.24 800.516 1043.42 812.643 1042.77 823.364 C 1041.57 843.209 1023.3 851.151 1011.12 836.135 C 1005.87 829.658 1008.25 799.29 1007.64 789.882 C 996.263 790.795 985.53 792.182 974.303 794.344 C 874.728 813.527 794.754 903.085 788.668 1005.15 C 794.304 1005.06 811.486 1005.66 815.975 1004.78 C 840.263 1000 865.031 1021.19 837.298 1039.32 C 822.217 1041.06 803.838 1039.42 788.551 1039.53 z M 755.448 1005.53 C 764.574 868.836 872.131 765.486 1008.06 756.573 C 1008.11 748.939 1009.24 704.172 1006.8 700.384 L 1004.45 700.481 C 910.407 708.849 833.503 745.558 772.32 818.666 C 735.952 862.435 711.359 914.763 700.871 970.695 C 699.616 977.493 694.863 999.816 698.561 1004.72 L 701.75 1004.96 C 716.203 1005.11 742.298 1006.5 755.448 1005.53 z M 1008.09 1292.46 C 989.52 1289.82 973.679 1287.5 955.406 1283.01 C 861.255 1259.9 784.57 1184.21 762.477 1089.68 C 758.603 1073.1 756.365 1057.27 754.773 1040.31 C 738.843 1039.93 712.533 1039.2 696.834 1040.03 C 696.405 1053.28 698.619 1065.93 700.864 1079.31 C 725.567 1226.62 856.468 1341.87 1005.76 1347.67 C 1006.52 1347.68 1007.27 1347.68 1008.03 1347.68 C 1008.18 1331.34 1008.82 1308.6 1008.09 1292.46 z M 834.296 1021.1 C 834.303 1021.41 834.311 1021.72 834.318 1022.02 L 834.389 1022.08 C 834.708 1021.95 834.508 1022.06 835.018 1021.67 C 835.13 1020.96 835.124 1021.22 835.094 1020.83 C 834.828 1020.92 834.562 1021.01 834.296 1021.1 z M 1042.4 700.723 C 1041.78 718.762 1042.48 738.684 1042.87 756.857 C 1115.2 761.115 1182.85 794.041 1230.83 848.341 C 1268.66 892.373 1291.69 947.182 1296.67 1005.02 C 1312.06 1004.99 1338.3 1006.32 1352.23 1005.58 C 1351.99 992.269 1349.75 980.103 1347.32 967.076 C 1334.98 900.393 1302.1 839.235 1253.29 792.158 C 1199.78 740.697 1117.13 700.062 1042.4 700.723 z M 1090.36 1341.76 C 1169.37 1326.76 1249.4 1273.48 1294.68 1207.07 C 1323.41 1165.43 1342 1117.65 1348.95 1067.54 C 1350.12 1058.94 1351.75 1048.64 1351.83 1040.07 C 1333.22 1039.87 1314.61 1039.93 1296 1040.22 C 1294.07 1056.47 1292.35 1070.74 1288.46 1086.76 C 1273.85 1145.87 1239.68 1198.29 1191.5 1235.51 C 1146.33 1271.07 1099.18 1287.65 1042.16 1291.93 C 1041.97 1310.15 1042.68 1329.39 1043.16 1347.68 C 1059.44 1347.26 1074.38 1344.5 1090.36 1341.76 z" fill="rgb(20,184,166)" transform="translate(0,0)"></path>
<path d="M 1022.68 953.817 C 1061.07 952.607 1093.27 982.534 1094.88 1020.91 C 1096.48 1059.28 1066.89 1091.79 1028.53 1093.79 C 1003.37 1095.11 979.435 1082.8 965.861 1061.57 C 952.288 1040.34 951.163 1013.45 962.917 991.162 C 974.67 968.871 997.49 954.611 1022.68 953.817 z M 1029.49 1059.29 C 1049.33 1056.11 1062.85 1037.48 1059.72 1017.64 C 1056.59 997.792 1037.99 984.226 1018.14 987.31 C 998.226 990.404 984.606 1009.08 987.746 1028.99 C 990.885 1048.89 1009.59 1062.47 1029.49 1059.29 z" fill="rgb(20,184,166)" transform="translate(0,0)"></path>
<path d="M 834.296 1021.1 C 834.562 1021.01 834.828 1020.92 835.094 1020.83 C 835.124 1021.22 835.13 1020.96 835.018 1021.67 C 834.508 1022.06 834.708 1021.95 834.389 1022.08 L 834.318 1022.02 C 834.311 1021.72 834.303 1021.41 834.296 1021.1 z" fill="rgb(20,184,166)" fill-opacity="0.690196" transform="translate(0,0)"></path>
<metadata><recraft-signature>{"signed_by": "recraft", "signature_b64": "HNNmUWgLz7y0IvQOD6lVeMUS6/xVZ5oNyCDmGry9oiX1UsIUTUcCxpGEKA/P9ygsDD+KSjhmNjFdtxyEGTZnDg==", "signing_algo": "Ed25519", "generation_timestamp": 1784704103, "identifier": "ff9877f2-0bc1-429d-aa4b-a9b6dd12ed7c"}</recraft-signature></metadata></svg>