<svg xmlns="http://www.w3.org/2000/svg" height="1024" preserveAspectRatio="none" style="display: block;" version="1.1" viewBox="0 0 2048 2048" width="1024">
<path d="M 1606.57 293.481 C 1627.58 293.213 1637.1 293.355 1642.41 315.671 C 1635.95 341.48 1618.35 334.614 1597.11 337.133 C 1610.38 346.339 1623.07 352.804 1636.68 363.013 C 1683.38 398.035 1720.17 449.587 1741.32 503.875 C 1751.31 529.89 1757.7 557.152 1760.31 584.901 C 1764.01 627.14 1762.79 688.753 1762.81 732.416 L 1762.53 967.845 L 1762.41 1150.65 C 1762.52 1228.43 1767.43 1298.58 1734.05 1371.32 C 1694.33 1457.88 1633.41 1515.07 1544.95 1549.23 C 1508.94 1627.36 1450.11 1685.13 1373.07 1722.95 C 1337.89 1739.81 1300.11 1750.6 1261.33 1754.85 C 1237.52 1757.44 1187.56 1756.02 1161.49 1756.01 L 974.184 1756 L 728.938 1756.06 L 650.489 1756.1 C 635.146 1756.1 616.898 1756.54 601.753 1755.55 C 571.432 1753.36 541.519 1747.28 512.749 1737.46 C 424.373 1709.89 347.368 1632.67 313.162 1547.16 C 285.202 1477.26 291.117 1406.67 291.027 1332.85 L 291.087 1094.04 L 290.912 894.845 C 290.844 858.838 288.545 816.424 292.337 781.075 C 304.013 672.244 371.04 572.949 467.497 521.246 C 482.781 513.053 497.721 506.791 513.864 500.467 C 531.409 462.507 555.283 427.807 584.464 397.853 C 630.715 350.645 689.437 317.564 753.778 302.468 C 804.939 290.809 851.982 293.874 904.068 294.055 L 1040.92 294.197 L 1606.57 293.481 z M 552.058 533.569 C 520.696 600.133 525.218 672.506 525.173 744.068 L 525.132 925.74 L 525.498 1121.78 C 525.474 1186.05 520.118 1261.05 542.258 1321.75 C 569.595 1397.54 626.286 1459.14 699.552 1492.66 C 762.708 1521.74 796.912 1522.3 864.376 1522.4 L 1234.48 1522.11 L 1359.81 1522.07 C 1409.91 1522.08 1458.16 1525.55 1506.72 1512.18 C 1517.86 1487.06 1524.77 1460.26 1527.14 1432.87 C 1529.99 1402.6 1528.41 1353.87 1528.29 1321.94 L 1528.03 1135.72 L 1527.97 920.26 C 1527.97 886.153 1529.6 835.888 1527.06 803.403 C 1524.88 774.638 1518.59 746.334 1508.37 719.354 C 1478.29 643.25 1419.41 582.08 1344.51 549.119 C 1288.55 524.397 1248.32 524.219 1189.08 524.495 L 809.827 524.828 C 766.825 524.609 723.821 524.61 680.818 524.831 C 635.292 525.007 596.526 522.095 552.058 533.569 z M 1328.76 1694.14 C 1393.16 1670.58 1454.15 1622.28 1488.77 1562.77 C 1448.22 1565.89 1405.13 1564.56 1364.14 1564.83 L 1114.5 1565.1 L 911.203 1565.1 C 865.143 1565.09 803.634 1567.64 759.639 1558.84 C 701.067 1547.07 646.484 1520.5 601.092 1481.66 C 537.602 1427.44 490.502 1342.12 484.63 1258.44 C 482.419 1226.93 483.553 1184.74 483.418 1151.99 C 483.059 1077.92 483.126 1003.84 483.62 929.767 L 483.653 733.397 L 483.621 666.157 C 483.62 636.754 482.83 607.401 489.772 578.601 C 490.617 575.099 495.505 558.58 493.843 557.008 C 409.651 597.757 342.285 693.118 336.261 787.623 C 333.523 830.562 335.043 877.026 335.028 920.322 L 334.964 1154.47 L 334.958 1347.94 C 334.956 1423.57 328.675 1484.72 364.125 1554.47 C 398.725 1622.56 456.553 1673.08 528.497 1697.59 C 550.322 1704.89 572.954 1709.51 595.894 1711.34 C 629.513 1713.71 679.53 1712.14 714.471 1712.12 L 931.933 1712.03 L 1139.46 1712.12 C 1174.18 1712.15 1209.57 1712.64 1244.26 1711.84 C 1271.69 1711.21 1302.65 1702.86 1328.76 1694.14 z M 573.416 484.095 C 584.753 483.722 596.451 482.298 607.494 482.151 C 636.627 481.763 665.876 481.839 695.028 481.691 L 981.466 481.609 C 1042.69 481.029 1103.92 480.967 1165.15 481.422 C 1203.64 481.527 1255.73 479.108 1293 486.975 C 1355.46 499.975 1413.2 529.754 1460 573.11 C 1529.25 637.885 1570.69 730.353 1571.39 824.575 C 1571.78 875.208 1571.83 925.734 1571.85 976.36 L 1571.87 1277.92 L 1571.99 1368.72 C 1572.02 1405.91 1572.78 1441.18 1563.67 1477.53 C 1562.27 1483.14 1560.91 1489.94 1560.12 1495.67 C 1623.26 1466.85 1675.54 1403.45 1700.21 1338.99 C 1725.88 1271.9 1718.97 1199.38 1719.17 1128.75 C 1719.79 1050.69 1719.88 972.621 1719.42 894.558 L 1719.17 712.874 C 1719.21 674.234 1720.53 625.185 1716.78 587.999 C 1713.78 558.308 1706.03 529.294 1693.82 502.063 C 1663.19 434.695 1606.99 382.306 1537.64 356.486 C 1511.94 347.025 1485.13 340.891 1457.88 338.231 C 1435.49 336.047 1408.77 336.769 1385.87 336.732 L 1271.67 336.755 L 948.279 336.488 L 861.278 336.717 C 841.198 336.816 821.381 336.458 801.357 338.447 C 706.236 347.894 622.723 402.717 573.416 484.095 z" fill="rgb(14,158,173)" transform="translate(0,0)"></path>
<path d="M 1693.08 294.269 C 1704.09 293.533 1715.35 293.796 1726.59 293.959 C 1740.09 294.155 1757.59 290.971 1763.48 307.097 C 1768.36 320.465 1761.21 330.362 1748.61 335.135 C 1738.3 336.449 1698.04 337.457 1689.48 333.522 C 1672.04 325.502 1672.64 301.725 1693.08 294.269 z" fill="rgb(14,158,173)" transform="translate(0,0)"></path>
<metadata><recraft-signature>{"signed_by": "recraft", "signature_b64": "nLalQ4Z4BAEmv9BnaLLt9Rf6ZPBJ1DwP0Vd0o9oyNg8PpAbFQQTI972nOxXFhRWtPD021lQRKttq2REIojNdCg==", "signing_algo": "Ed25519", "generation_timestamp": 1784704115, "identifier": "d82efe50-51c3-4241-9131-462601b8ed8f"}</recraft-signature></metadata></svg>